<mxfile host="Electron" modified="2023-11-27T13:28:41.674Z" agent="Mozilla/5.0 (Macintosh; Intel Mac OS X 10_15_7) AppleWebKit/537.36 (KHTML, like Gecko) draw.io/22.1.2 Chrome/114.0.5735.289 Electron/25.9.4 Safari/537.36" etag="bLKh8qmWejFt9GRxlqQR" version="22.1.2" type="device">
  <diagram id="C5RBs43oDa-KdzZeNtuy" name="Page-1">
    <mxGraphModel dx="1504" dy="1394" grid="1" gridSize="10" guides="1" tooltips="1" connect="1" arrows="1" fold="1" page="1" pageScale="1" pageWidth="827" pageHeight="1169" math="0" shadow="0">
      <root>
        <mxCell id="WIyWlLk6GJQsqaUBKTNV-0" />
        <mxCell id="WIyWlLk6GJQsqaUBKTNV-1" parent="WIyWlLk6GJQsqaUBKTNV-0" />
        <mxCell id="WIyWlLk6GJQsqaUBKTNV-3" value="News.xlsx&lt;br&gt;Number: 1,037,035" style="rounded=1;whiteSpace=wrap;html=1;fontSize=12;glass=0;strokeWidth=1;shadow=0;" parent="WIyWlLk6GJQsqaUBKTNV-1" vertex="1">
          <mxGeometry x="160" y="80" width="120" height="40" as="geometry" />
        </mxCell>
        <mxCell id="UkxlcNlyfsjkiF_c74yj-1" style="edgeStyle=orthogonalEdgeStyle;rounded=0;orthogonalLoop=1;jettySize=auto;html=1;exitX=0.5;exitY=1;exitDx=0;exitDy=0;entryX=0.5;entryY=0;entryDx=0;entryDy=0;" edge="1" parent="WIyWlLk6GJQsqaUBKTNV-1" source="WIyWlLk6GJQsqaUBKTNV-6" target="WIyWlLk6GJQsqaUBKTNV-11">
          <mxGeometry relative="1" as="geometry" />
        </mxCell>
        <mxCell id="WIyWlLk6GJQsqaUBKTNV-6" value="Delete Null Value&lt;br&gt;Delete Number: 421 News&amp;nbsp;&lt;br&gt;Filter Rate: 0.041%" style="rhombus;whiteSpace=wrap;html=1;shadow=0;fontFamily=Helvetica;fontSize=12;align=center;strokeWidth=1;spacing=6;spacingTop=-4;" parent="WIyWlLk6GJQsqaUBKTNV-1" vertex="1">
          <mxGeometry x="90" y="160" width="260" height="120" as="geometry" />
        </mxCell>
        <mxCell id="UkxlcNlyfsjkiF_c74yj-6" style="edgeStyle=orthogonalEdgeStyle;rounded=0;orthogonalLoop=1;jettySize=auto;html=1;exitX=0.5;exitY=1;exitDx=0;exitDy=0;entryX=0.5;entryY=0;entryDx=0;entryDy=0;" edge="1" parent="WIyWlLk6GJQsqaUBKTNV-1" source="WIyWlLk6GJQsqaUBKTNV-11" target="UkxlcNlyfsjkiF_c74yj-4">
          <mxGeometry relative="1" as="geometry" />
        </mxCell>
        <mxCell id="WIyWlLk6GJQsqaUBKTNV-11" value="Remaining 1,036,614 News" style="rounded=1;whiteSpace=wrap;html=1;fontSize=12;glass=0;strokeWidth=1;shadow=0;" parent="WIyWlLk6GJQsqaUBKTNV-1" vertex="1">
          <mxGeometry x="135" y="320" width="170" height="40" as="geometry" />
        </mxCell>
        <mxCell id="UkxlcNlyfsjkiF_c74yj-0" value="" style="endArrow=classic;html=1;rounded=0;exitX=0.5;exitY=1;exitDx=0;exitDy=0;entryX=0.5;entryY=0;entryDx=0;entryDy=0;" edge="1" parent="WIyWlLk6GJQsqaUBKTNV-1" source="WIyWlLk6GJQsqaUBKTNV-3" target="WIyWlLk6GJQsqaUBKTNV-6">
          <mxGeometry width="50" height="50" relative="1" as="geometry">
            <mxPoint x="270" y="490" as="sourcePoint" />
            <mxPoint x="320" y="440" as="targetPoint" />
          </mxGeometry>
        </mxCell>
        <mxCell id="UkxlcNlyfsjkiF_c74yj-9" style="edgeStyle=orthogonalEdgeStyle;rounded=0;orthogonalLoop=1;jettySize=auto;html=1;exitX=0.5;exitY=1;exitDx=0;exitDy=0;entryX=0.5;entryY=0;entryDx=0;entryDy=0;" edge="1" parent="WIyWlLk6GJQsqaUBKTNV-1" source="UkxlcNlyfsjkiF_c74yj-3" target="UkxlcNlyfsjkiF_c74yj-8">
          <mxGeometry relative="1" as="geometry" />
        </mxCell>
        <mxCell id="UkxlcNlyfsjkiF_c74yj-3" value="Remaining 1,027,482 News" style="rounded=1;whiteSpace=wrap;html=1;fontSize=12;glass=0;strokeWidth=1;shadow=0;" vertex="1" parent="WIyWlLk6GJQsqaUBKTNV-1">
          <mxGeometry x="135" y="560" width="170" height="40" as="geometry" />
        </mxCell>
        <mxCell id="UkxlcNlyfsjkiF_c74yj-7" style="edgeStyle=orthogonalEdgeStyle;rounded=0;orthogonalLoop=1;jettySize=auto;html=1;exitX=0.5;exitY=1;exitDx=0;exitDy=0;entryX=0.5;entryY=0;entryDx=0;entryDy=0;" edge="1" parent="WIyWlLk6GJQsqaUBKTNV-1" source="UkxlcNlyfsjkiF_c74yj-4" target="UkxlcNlyfsjkiF_c74yj-3">
          <mxGeometry relative="1" as="geometry" />
        </mxCell>
        <mxCell id="UkxlcNlyfsjkiF_c74yj-4" value="Delete All-English News&lt;br&gt;Delete Number: 9,132 News&lt;br&gt;Filter Rate: 0.881%" style="rhombus;whiteSpace=wrap;html=1;shadow=0;fontFamily=Helvetica;fontSize=12;align=center;strokeWidth=1;spacing=6;spacingTop=-4;" vertex="1" parent="WIyWlLk6GJQsqaUBKTNV-1">
          <mxGeometry x="85" y="400" width="270" height="120" as="geometry" />
        </mxCell>
        <mxCell id="UkxlcNlyfsjkiF_c74yj-12" style="edgeStyle=orthogonalEdgeStyle;rounded=0;orthogonalLoop=1;jettySize=auto;html=1;exitX=0.5;exitY=1;exitDx=0;exitDy=0;entryX=0.5;entryY=0;entryDx=0;entryDy=0;" edge="1" parent="WIyWlLk6GJQsqaUBKTNV-1" source="UkxlcNlyfsjkiF_c74yj-8" target="UkxlcNlyfsjkiF_c74yj-11">
          <mxGeometry relative="1" as="geometry" />
        </mxCell>
        <mxCell id="UkxlcNlyfsjkiF_c74yj-8" value="Remove Duplicates&lt;br&gt;Delete Number: 33,979 News&lt;br&gt;Filter Rate: 3.277%" style="rhombus;whiteSpace=wrap;html=1;shadow=0;fontFamily=Helvetica;fontSize=12;align=center;strokeWidth=1;spacing=6;spacingTop=-4;" vertex="1" parent="WIyWlLk6GJQsqaUBKTNV-1">
          <mxGeometry x="85" y="640" width="270" height="120" as="geometry" />
        </mxCell>
        <mxCell id="UkxlcNlyfsjkiF_c74yj-14" style="edgeStyle=orthogonalEdgeStyle;rounded=0;orthogonalLoop=1;jettySize=auto;html=1;exitX=0.5;exitY=1;exitDx=0;exitDy=0;entryX=0.5;entryY=0;entryDx=0;entryDy=0;" edge="1" parent="WIyWlLk6GJQsqaUBKTNV-1" source="UkxlcNlyfsjkiF_c74yj-11" target="UkxlcNlyfsjkiF_c74yj-13">
          <mxGeometry relative="1" as="geometry" />
        </mxCell>
        <mxCell id="UkxlcNlyfsjkiF_c74yj-11" value="Remaining 993,503 News" style="rounded=1;whiteSpace=wrap;html=1;fontSize=12;glass=0;strokeWidth=1;shadow=0;" vertex="1" parent="WIyWlLk6GJQsqaUBKTNV-1">
          <mxGeometry x="135" y="800" width="170" height="40" as="geometry" />
        </mxCell>
        <mxCell id="UkxlcNlyfsjkiF_c74yj-17" style="edgeStyle=orthogonalEdgeStyle;rounded=0;orthogonalLoop=1;jettySize=auto;html=1;exitX=1;exitY=0.5;exitDx=0;exitDy=0;entryX=0.5;entryY=0;entryDx=0;entryDy=0;" edge="1" parent="WIyWlLk6GJQsqaUBKTNV-1" source="UkxlcNlyfsjkiF_c74yj-13" target="UkxlcNlyfsjkiF_c74yj-16">
          <mxGeometry relative="1" as="geometry" />
        </mxCell>
        <mxCell id="UkxlcNlyfsjkiF_c74yj-18" style="edgeStyle=orthogonalEdgeStyle;rounded=0;orthogonalLoop=1;jettySize=auto;html=1;exitX=0;exitY=0.5;exitDx=0;exitDy=0;entryX=0.5;entryY=0;entryDx=0;entryDy=0;" edge="1" parent="WIyWlLk6GJQsqaUBKTNV-1" source="UkxlcNlyfsjkiF_c74yj-13" target="UkxlcNlyfsjkiF_c74yj-15">
          <mxGeometry relative="1" as="geometry" />
        </mxCell>
        <mxCell id="UkxlcNlyfsjkiF_c74yj-13" value="Match at Least One Keyword?&lt;br&gt;(name, fullname, code)" style="rhombus;whiteSpace=wrap;html=1;shadow=0;fontFamily=Helvetica;fontSize=12;align=center;strokeWidth=1;spacing=6;spacingTop=-4;" vertex="1" parent="WIyWlLk6GJQsqaUBKTNV-1">
          <mxGeometry x="85" y="880" width="270" height="120" as="geometry" />
        </mxCell>
        <mxCell id="UkxlcNlyfsjkiF_c74yj-28" style="edgeStyle=orthogonalEdgeStyle;rounded=0;orthogonalLoop=1;jettySize=auto;html=1;exitX=0.5;exitY=1;exitDx=0;exitDy=0;entryX=0.5;entryY=0;entryDx=0;entryDy=0;" edge="1" parent="WIyWlLk6GJQsqaUBKTNV-1" source="UkxlcNlyfsjkiF_c74yj-15" target="UkxlcNlyfsjkiF_c74yj-27">
          <mxGeometry relative="1" as="geometry">
            <Array as="points">
              <mxPoint y="1640" />
              <mxPoint x="220" y="1640" />
            </Array>
          </mxGeometry>
        </mxCell>
        <mxCell id="UkxlcNlyfsjkiF_c74yj-15" value="Match at Least One Keyword&lt;br&gt;571,035 News" style="rounded=1;whiteSpace=wrap;html=1;fontSize=12;glass=0;strokeWidth=1;shadow=0;" vertex="1" parent="WIyWlLk6GJQsqaUBKTNV-1">
          <mxGeometry x="-85" y="1040" width="170" height="40" as="geometry" />
        </mxCell>
        <mxCell id="UkxlcNlyfsjkiF_c74yj-30" style="edgeStyle=orthogonalEdgeStyle;rounded=0;orthogonalLoop=1;jettySize=auto;html=1;exitX=0.5;exitY=1;exitDx=0;exitDy=0;entryX=0.5;entryY=0;entryDx=0;entryDy=0;" edge="1" parent="WIyWlLk6GJQsqaUBKTNV-1" source="UkxlcNlyfsjkiF_c74yj-16" target="UkxlcNlyfsjkiF_c74yj-20">
          <mxGeometry relative="1" as="geometry" />
        </mxCell>
        <mxCell id="UkxlcNlyfsjkiF_c74yj-16" value="Other News&lt;br&gt;422,468 News" style="rounded=1;whiteSpace=wrap;html=1;fontSize=12;glass=0;strokeWidth=1;shadow=0;" vertex="1" parent="WIyWlLk6GJQsqaUBKTNV-1">
          <mxGeometry x="355" y="1040" width="170" height="40" as="geometry" />
        </mxCell>
        <mxCell id="UkxlcNlyfsjkiF_c74yj-22" style="edgeStyle=orthogonalEdgeStyle;rounded=0;orthogonalLoop=1;jettySize=auto;html=1;exitX=0.5;exitY=1;exitDx=0;exitDy=0;entryX=0.5;entryY=0;entryDx=0;entryDy=0;" edge="1" parent="WIyWlLk6GJQsqaUBKTNV-1" source="UkxlcNlyfsjkiF_c74yj-20" target="UkxlcNlyfsjkiF_c74yj-21">
          <mxGeometry relative="1" as="geometry" />
        </mxCell>
        <mxCell id="UkxlcNlyfsjkiF_c74yj-20" value="Use LAC Tools to Extract ORG Tags&lt;br&gt;Delete News Without ORG Tags&lt;br&gt;Delete Number: 62,297 News&lt;br&gt;Filter Rate: 6.001%" style="rhombus;whiteSpace=wrap;html=1;shadow=0;fontFamily=Helvetica;fontSize=12;align=center;strokeWidth=1;spacing=6;spacingTop=-4;" vertex="1" parent="WIyWlLk6GJQsqaUBKTNV-1">
          <mxGeometry x="273.75" y="1120" width="332.5" height="160" as="geometry" />
        </mxCell>
        <mxCell id="UkxlcNlyfsjkiF_c74yj-26" style="edgeStyle=orthogonalEdgeStyle;rounded=0;orthogonalLoop=1;jettySize=auto;html=1;exitX=0.5;exitY=1;exitDx=0;exitDy=0;entryX=0.5;entryY=0;entryDx=0;entryDy=0;" edge="1" parent="WIyWlLk6GJQsqaUBKTNV-1" source="UkxlcNlyfsjkiF_c74yj-21" target="UkxlcNlyfsjkiF_c74yj-23">
          <mxGeometry relative="1" as="geometry" />
        </mxCell>
        <mxCell id="UkxlcNlyfsjkiF_c74yj-21" value="Remaining 360,171 News" style="rounded=1;whiteSpace=wrap;html=1;fontSize=12;glass=0;strokeWidth=1;shadow=0;" vertex="1" parent="WIyWlLk6GJQsqaUBKTNV-1">
          <mxGeometry x="355" y="1320" width="170" height="40" as="geometry" />
        </mxCell>
        <mxCell id="UkxlcNlyfsjkiF_c74yj-25" style="edgeStyle=orthogonalEdgeStyle;rounded=0;orthogonalLoop=1;jettySize=auto;html=1;exitX=0.5;exitY=1;exitDx=0;exitDy=0;entryX=0.5;entryY=0;entryDx=0;entryDy=0;" edge="1" parent="WIyWlLk6GJQsqaUBKTNV-1" source="UkxlcNlyfsjkiF_c74yj-23" target="UkxlcNlyfsjkiF_c74yj-24">
          <mxGeometry relative="1" as="geometry" />
        </mxCell>
        <mxCell id="UkxlcNlyfsjkiF_c74yj-23" value="Use thefuzz Tool&lt;br&gt;Delete news with similarity below 80%&lt;br&gt;Delete Number:&amp;nbsp;348,203 News&lt;br&gt;Filter Rate: 33.578%" style="rhombus;whiteSpace=wrap;html=1;shadow=0;fontFamily=Helvetica;fontSize=12;align=center;strokeWidth=1;spacing=6;spacingTop=-4;" vertex="1" parent="WIyWlLk6GJQsqaUBKTNV-1">
          <mxGeometry x="305" y="1400" width="270" height="120" as="geometry" />
        </mxCell>
        <mxCell id="UkxlcNlyfsjkiF_c74yj-29" style="edgeStyle=orthogonalEdgeStyle;rounded=0;orthogonalLoop=1;jettySize=auto;html=1;exitX=0.5;exitY=1;exitDx=0;exitDy=0;entryX=0.5;entryY=0;entryDx=0;entryDy=0;" edge="1" parent="WIyWlLk6GJQsqaUBKTNV-1" source="UkxlcNlyfsjkiF_c74yj-24" target="UkxlcNlyfsjkiF_c74yj-27">
          <mxGeometry relative="1" as="geometry" />
        </mxCell>
        <mxCell id="UkxlcNlyfsjkiF_c74yj-24" value="Remaining 11,968 News" style="rounded=1;whiteSpace=wrap;html=1;fontSize=12;glass=0;strokeWidth=1;shadow=0;" vertex="1" parent="WIyWlLk6GJQsqaUBKTNV-1">
          <mxGeometry x="355" y="1560" width="170" height="40" as="geometry" />
        </mxCell>
        <mxCell id="UkxlcNlyfsjkiF_c74yj-27" value="Final Result&lt;br&gt;583,003 News" style="rounded=1;whiteSpace=wrap;html=1;fontSize=12;glass=0;strokeWidth=1;shadow=0;" vertex="1" parent="WIyWlLk6GJQsqaUBKTNV-1">
          <mxGeometry x="135" y="1680" width="170" height="40" as="geometry" />
        </mxCell>
      </root>
    </mxGraphModel>
  </diagram>
</mxfile>
